<svg width="115" height="25" viewBox="0 0 115 25" fill="none" xmlns="http://www.w3.org/2000/svg">
<path d="M31.8395 2.03267C32.0474 1.39287 32.9526 1.39288 33.1605 2.03267L35.1505 8.15744C35.2435 8.44357 35.5101 8.63729 35.811 8.63729H42.2509C42.9237 8.63729 43.2034 9.49813 42.6591 9.89355L37.4491 13.6789C37.2057 13.8557 37.1038 14.1691 37.1968 14.4553L39.1869 20.58C39.3947 21.2198 38.6625 21.7519 38.1182 21.3565L32.9082 17.5711C32.6648 17.3943 32.3352 17.3943 32.0918 17.5711L26.8818 21.3565C26.3375 21.7519 25.6053 21.2198 25.8131 20.58L27.8032 14.4553C27.8962 14.1691 27.7943 13.8557 27.5509 13.6789L22.3409 9.89355C21.7966 9.49813 22.0763 8.63729 22.7491 8.63729H29.189C29.4899 8.63729 29.7565 8.44356 29.8495 8.15744L31.8395 2.03267Z" fill="white"/>
<path d="M52.8395 2.03267C53.0474 1.39287 53.9526 1.39288 54.1605 2.03267L56.1505 8.15744C56.2435 8.44357 56.5101 8.63729 56.811 8.63729H63.2509C63.9237 8.63729 64.2034 9.49813 63.6591 9.89355L58.4491 13.6789C58.2057 13.8557 58.1038 14.1691 58.1968 14.4553L60.1869 20.58C60.3947 21.2198 59.6625 21.7519 59.1182 21.3565L53.9082 17.5711C53.6648 17.3943 53.3352 17.3943 53.0918 17.5711L47.8818 21.3565C47.3375 21.7519 46.6053 21.2198 46.8131 20.58L48.8032 14.4553C48.8962 14.1691 48.7943 13.8557 48.5509 13.6789L43.3409 9.89355C42.7966 9.49813 43.0763 8.63729 43.7491 8.63729H50.189C50.4899 8.63729 50.7565 8.44356 50.8495 8.15744L52.8395 2.03267Z" fill="white"/>
<path d="M77.8395 2.03267C78.0474 1.39287 78.9526 1.39288 79.1605 2.03267L81.1505 8.15744C81.2435 8.44356 81.5101 8.63729 81.811 8.63729H88.2509C88.9237 8.63729 89.2034 9.49813 88.6591 9.89355L83.4491 13.6789C83.2057 13.8557 83.1038 14.1691 83.1968 14.4553L85.1869 20.58C85.3947 21.2198 84.6625 21.7519 84.1182 21.3565L78.9082 17.5711C78.6648 17.3943 78.3352 17.3943 78.0918 17.5711L72.8818 21.3565C72.3375 21.7519 71.6053 21.2198 71.8131 20.58L73.8032 14.4553C73.8962 14.1691 73.7943 13.8557 73.5509 13.6789L68.3409 9.89355C67.7966 9.49813 68.0763 8.63729 68.7491 8.63729H75.189C75.4899 8.63729 75.7565 8.44356 75.8495 8.15744L77.8395 2.03267Z" fill="white"/>
<path d="M101.84 2.03267C102.047 1.39287 102.953 1.39288 103.16 2.03267L105.151 8.15744C105.243 8.44356 105.51 8.63729 105.811 8.63729H112.251C112.924 8.63729 113.203 9.49813 112.659 9.89355L107.449 13.6789C107.206 13.8557 107.104 14.1691 107.197 14.4553L109.187 20.58C109.395 21.2198 108.662 21.7519 108.118 21.3565L102.908 17.5711C102.665 17.3943 102.335 17.3943 102.092 17.5711L96.8818 21.3565C96.3375 21.7519 95.6053 21.2198 95.8131 20.58L97.8032 14.4553C97.8962 14.1691 97.7943 13.8557 97.5509 13.6789L92.3409 9.89355C91.7966 9.49813 92.0763 8.63729 92.7491 8.63729H99.189C99.4899 8.63729 99.7565 8.44356 99.8495 8.15744L101.84 2.03267Z" fill="white"/>
<path d="M11.8395 2.03267C12.0474 1.39287 12.9526 1.39288 13.1605 2.03267L15.1505 8.15744C15.2435 8.44357 15.5101 8.63729 15.811 8.63729H22.2509C22.9237 8.63729 23.2034 9.49813 22.6591 9.89355L17.4491 13.6789C17.2057 13.8557 17.1038 14.1691 17.1968 14.4553L19.1869 20.58C19.3947 21.2198 18.6625 21.7519 18.1182 21.3565L12.9082 17.5711C12.6648 17.3943 12.3352 17.3943 12.0918 17.5711L6.88178 21.3565C6.33753 21.7519 5.60526 21.2198 5.81314 20.58L7.8032 14.4553C7.89616 14.1691 7.79432 13.8557 7.55092 13.6789L2.34089 9.89355C1.79664 9.49813 2.07635 8.63729 2.74907 8.63729H9.18903C9.48988 8.63729 9.75652 8.44356 9.84949 8.15744L11.8395 2.03267Z" fill="white"/>
</svg>
