<svg width="21" height="21" viewBox="0 0 21 21" fill="none" xmlns="http://www.w3.org/2000/svg">
<path d="M9.83954 1.03267C10.0474 0.392874 10.9526 0.392875 11.1605 1.03267L13.1505 7.15744C13.2435 7.44356 13.5101 7.63729 13.811 7.63729H20.2509C20.9237 7.63729 21.2034 8.49813 20.6591 8.89355L15.4491 12.6789C15.2057 12.8557 15.1038 13.1691 15.1968 13.4553L17.1869 19.58C17.3947 20.2198 16.6625 20.7519 16.1182 20.3565L10.9082 16.5711C10.6648 16.3943 10.3352 16.3943 10.0918 16.5711L4.88178 20.3565C4.33753 20.7519 3.60526 20.2198 3.81314 19.58L5.8032 13.4553C5.89616 13.1691 5.79432 12.8557 5.55092 12.6789L0.340888 8.89355C-0.203357 8.49813 0.0763492 7.63729 0.749074 7.63729H7.18903C7.48988 7.63729 7.75652 7.44356 7.84949 7.15744L9.83954 1.03267Z" fill="white"/>
</svg>
